<svg width="368" height="75" viewBox="0 0 368 75" fill="none" xmlns="http://www.w3.org/2000/svg">
<g clip-path="url(#clip0_1796_23486)">
<path d="M9.1 47.7H19.6C22.6 47.7 24.4 47.3 26.1 46.3C28.6 44.8 30.1 41.9 30.1 38.6C30.1 35.3 28.6 32.4 26.1 30.9C24.5 29.9 22.6 29.5 19.6 29.5H9.1V47.7ZM0 73.7V21H19.9C23.5 21 26.7 21.6 29.2 22.7C35.6 25.5 39.5 31.7 39.5 38.6C39.5 45.5 35.5 51.7 29.2 54.5C26.7 55.6 23.4 56.1 19.9 56.1H9.1V73.6H0V73.7Z" fill="black"/>
<path d="M57.1 45L53.5 54.5H70.9L67.3 45C65.3 39.8 62.3 31.9 62.3 31.9H62.1C62.1 31.9 59 39.8 57.1 45ZM78.2 73.7L74.2 63H50.3L46.3 73.7H36.5L57.7 21H67.3L88.5 73.7H78.4H78.2Z" fill="black"/>
<path d="M132.5 73.7L112.3 46.3L104.5 35.8V49.9V73.7H95.3999V21H104.6L124.7 48.4L132.6 58.9V44.8V21H141.7V73.7H132.5Z" fill="black"/>
<path d="M162.1 65H170.1C176 65 180.3 64 183.5 61.8C188.1 58.7 190.6 53.4 190.4 47.3C190.5 41.2 188 35.9 183.5 32.8C180.4 30.7 176 29.6 170.1 29.6H162.1V65ZM153 73.7V21H170.4C178.4 21 185.2 22.9 189.9 26.5C196.3 31.2 199.8 38.6 199.8 47.4C199.8 56.2 196.3 63.5 189.9 68.3C185.1 71.9 178.3 73.8 170.3 73.8H152.9L153 73.7Z" fill="black"/>
<path d="M234 28.4C223.3 28.4 215.6 36.4 215.6 47.3C215.6 58.2 223.3 66.2 234 66.2C244.7 66.2 252.4 58.2 252.4 47.3C252.4 36.4 244.7 28.4 234 28.4ZM234 74.9C218.1 74.9 206 63 206 47.3C206 31.6 218 19.7 234 19.7C250 19.7 262 31.6 262 47.3C262 63 250 74.9 234 74.9Z" fill="black"/>
<path d="M279 47.7H290.7C293.7 47.7 295.5 47.3 297.2 46.3C299.7 44.8 301.2 41.9 301.2 38.6C301.2 35.3 299.7 32.4 297.2 30.9C295.6 29.9 293.7 29.5 290.7 29.5H279V47.7ZM301.3 73.7L291.2 56.2H279V73.7H269.9V21H291C294.6 21 297.8 21.6 300.3 22.7C306.7 25.5 310.6 31.7 310.6 38.6C310.6 45.5 306.9 51 300.8 53.9L300.5 54.1L311.9 73.7H301.2H301.3Z" fill="black"/>
<path d="M336.3 45L332.7 54.5H350.1L346.5 45C344.5 39.8 341.5 31.9 341.5 31.9H341.3C341.3 31.9 338.2 39.8 336.3 45ZM357.4 73.7L353.4 63H329.5L325.5 73.7H315.7L336.9 21H346.5L367.7 73.7H357.6H357.4Z" fill="black"/>
<path d="M235.9 15.6C235.9 14.5 235 13.7 234 13.7C233 13.7 232 14.5 232 15.6C232 16.7 232.9 17.6 234 17.6C235.1 17.6 235.9 16.8 235.9 15.6Z" fill="black"/>
<path d="M233.7 0L232.2 11.6H235.7L234.3 0H233.7Z" fill="black"/>
<path d="M241.3 15.6C241.3 14.5 240.4 13.7 239.4 13.7C238.4 13.7 237.4 14.5 237.4 15.6C237.4 16.7 238.3 17.6 239.4 17.6C240.5 17.6 241.3 16.8 241.3 15.6Z" fill="black"/>
<path d="M243.2 0L238.2 11.6H241.8L243.8 0H243.2Z" fill="black"/>
<path d="M226.6 15.6C226.6 16.7 227.5 17.6 228.5 17.6C229.5 17.6 230.5 16.8 230.5 15.6C230.5 14.4 229.6 13.7 228.5 13.7C227.4 13.7 226.6 14.5 226.6 15.6Z" fill="black"/>
<path d="M224.1 0L226.2 11.6H229.7L224.7 0H224.1Z" fill="black"/>
</g>
<defs>
<clipPath id="clip0_1796_23486">
<rect width="367.5" height="74.9" fill="white"/>
</clipPath>
</defs>
</svg>
